{"title":"Supernatural S05 BDRip XviD SAiNTS","uid":5872628,"size":8098738997,"categoryP":"video","categoryS":"tv_shows","magnet":"?xt=urn:btih:071002880dcbe0047c9e7f18f4a9682dda38c7e3&amp;dn=Supernatural+S05+BDRip+XviD+SAiNTS&amp;tr=udp%3A%2F%2Ftracker.openbittorrent.com%3A80&amp;tr=udp%3A%2F%2Fopen.demonii.com%3A1337&amp;tr=udp%3A%2F%2Ftracker.coppersurfer.tk%3A6969&amp;tr=udp%3A%2F%2Fexodus.desync.com%3A6969","seeders":3,"leechers":3,"uploader":"C7-117","files":-1,"time":1286511250,"description":"Supernatural.S05.BDRip.XviD-SAiNTS\n\nIF TORRENT GETS STUCK AT 99% Ill upload episodes in different torrent i hope it dosent:/\n\nNote: im only uploading this i did not rip this all tnx go to SAiNTS if you want to send some tnx my way im not going to stop you :D BTW Upload speed is ~200kb so it might take some time to fully upload so hang in there also if your not going seed after Dl plz dont download till more seeds are available also the episodes are available via google from the scene\n\n\n\nFormat                           : AVI\nFormat/Info                      : Audio Video Interleave\nFile size                        : 350 MiB\nDuration                         : 42mn 26s\nOverall bit rate                 : 1 153 Kbps\nWriting application              : VirtualDubMod 1.5.10.2 (build 2540/release)\nWriting library                  : VirtualDubMod build 2540/release\n\nVideo\nID                               : 0\nFormat                           : MPEG-4 Visual\nFormat profile                   : AdvancedSimple@L5\nFormat settings, BVOP            : Yes\nFormat settings, QPel            : No\nFormat settings, GMC             : No warppoints\nFormat settings, Matrix          : Default (H.263)\nMuxing mode                      : Packed bitstream\nCodec ID                         : XVID\nCodec ID/Hint                    : XviD\nDuration                         : 42mn 26s\nBit rate                         : 1 010 Kbps\nWidth                            : 624 pixels\nHeight                           : 352 pixels\nDisplay aspect ratio             : 16:9\nFrame rate                       : 23.976 fps\nResolution                       : 24 bits\nColorimetry                      : 4:2:0\nScan type                        : Progressive\nBits/(Pixel*Frame)               : 0.192\nStream size                      : 307 MiB (88%)\nWriting library                  : XviD 1.2.1 (UTC 2008-12-04)\n\nAudio\nID                               : 1\nFormat                           : MPEG Audio\nFormat version                   : Version 1\nFormat profile                   : Layer 3\nCodec ID                         : 55\nCodec ID/Hint                    : MP3\nDuration                         : 42mn 26s\nBit rate mode                    : Variable\nBit rate                         : 130 Kbps\nNominal bit rate                 : 128 Kbps\nChannel(s)                       : 2 channels\nSampling rate                    : 48.0 KHz\nResolution                       : 16 bits\nStream size                      : 39.6 MiB (11%)\nAlignment                        : Aligned on interleaves\nInterleave, duration             : 24 ms (0.58 video frame)\nInterleave, preload duration     : 141 ms\nWriting library                  : LAME3.96r\nEncoding settings                : -m j -V 4 -q 3 -lowpass 17.5 --abr 128\n\n\n\nScreens\n","torrent":{"xt":"urn:btih:071002880dcbe0047c9e7f18f4a9682dda38c7e3","amp;dn":"Supernatural+S05+BDRip+XviD+SAiNTS","amp;tr":["udp%3A%2F%2Ftracker.openbittorrent.com%3A80","udp%3A%2F%2Fopen.demonii.com%3A1337","udp%3A%2F%2Ftracker.coppersurfer.tk%3A6969","udp%3A%2F%2Fexodus.desync.com%3A6969"],"infoHash":"071002880dcbe0047c9e7f18f4a9682dda38c7e3","infoHashBuffer":{"type":"Buffer","data":[7,16,2,136,13,203,224,4,124,158,127,24,244,169,104,45,218,56,199,227]},"announce":[],"urlList":[]}}